<svg width="28" height="28" viewBox="0 0 28 28" fill="none" xmlns="http://www.w3.org/2000/svg">
<ellipse cx="14.4419" cy="14.4889" rx="13.4917" ry="13.5" fill="#4D8BBE"/>
<path fill-rule="evenodd" clip-rule="evenodd" d="M8.36035 11.3682C8.36035 10.4202 9.12833 9.65179 10.0757 9.65179H18.8083C19.7557 9.65179 20.5237 10.4202 20.5237 11.3682V17.6096C20.5237 18.5575 19.7557 19.326 18.8083 19.326H10.0757C9.12833 19.326 8.36035 18.5575 8.36035 17.6096V11.3682ZM9.71143 11.3948C9.49645 11.2514 9.206 11.3095 9.06268 11.5246C8.91936 11.7397 8.97745 12.0304 9.19243 12.1738L13.4905 15.0409C14.0667 15.4253 14.8173 15.4253 15.3935 15.0409L19.6916 12.1738C19.9065 12.0304 19.9646 11.7397 19.8213 11.5246C19.678 11.3095 19.3875 11.2514 19.1726 11.3948L14.8745 14.2619C14.6126 14.4366 14.2714 14.4366 14.0095 14.2619L9.71143 11.3948Z" fill="white"/>
</svg>
