<svg width="15" height="19" viewBox="0 0 15 19" fill="none" xmlns="http://www.w3.org/2000/svg">
<path d="M11.3375 11.8049L10.2015 10.6683C10.3582 10.5246 10.4791 10.3579 10.5643 10.1682C10.6489 9.97899 10.6912 9.77988 10.6912 9.57084C10.6912 9.3618 10.6489 9.16269 10.5643 8.97351C10.4791 8.78381 10.3582 8.6171 10.2015 8.47339L11.3375 7.33674C11.6378 7.63723 11.8663 7.98006 12.023 8.36521C12.1797 8.75089 12.258 9.15276 12.258 9.57084C12.258 9.98892 12.1797 10.3905 12.023 10.7757C11.8663 11.1614 11.6378 11.5044 11.3375 11.8049ZM13.2569 13.7255L12.1601 12.628C12.5648 12.223 12.8782 11.7592 13.1002 11.2366C13.3221 10.714 13.4331 10.1588 13.4331 9.57084C13.4331 8.98292 13.3221 8.42766 13.1002 7.90507C12.8782 7.38247 12.5648 6.91866 12.1601 6.51365L13.2569 5.4162C13.8183 5.96493 14.2492 6.59857 14.5495 7.31714C14.8498 8.03571 15 8.78695 15 9.57084C15 10.3547 14.8498 11.106 14.5495 11.8245C14.2492 12.5431 13.8183 13.1768 13.2569 13.7255ZM2.44574 18.1937C2.01486 18.1937 1.64613 18.0403 1.33955 17.7335C1.03246 17.4263 0.878906 17.057 0.878906 16.6259V2.51579C0.878906 2.08465 1.03246 1.71543 1.33955 1.40814C1.64613 1.10138 2.01486 0.947998 2.44574 0.947998H10.2799C10.7108 0.947998 11.0798 1.10138 11.3868 1.40814C11.6934 1.71543 11.8467 2.08465 11.8467 2.51579V5.65137H10.2799V4.86747H2.44574V14.2742H10.2799V13.4903H11.8467V16.6259C11.8467 17.057 11.6934 17.4263 11.3868 17.7335C11.0798 18.0403 10.7108 18.1937 10.2799 18.1937H2.44574ZM2.44574 15.842V16.6259H10.2799V15.842H2.44574ZM2.44574 3.29968H10.2799V2.51579H2.44574V3.29968Z" fill="#E8E9EF"/>
</svg>
