<svg width="28" height="28" viewBox="0 0 28 28" fill="none" xmlns="http://www.w3.org/2000/svg">
<ellipse cx="14.4585" cy="13.7932" rx="13.4917" ry="13.5" fill="#4D8BBE"/>
<path d="M14.7962 7.53668C14.5162 7.53668 14.2893 7.7638 14.2893 8.04397C14.2893 8.32413 14.5162 8.55125 14.7962 8.55125C15.9833 8.55125 17.2128 9.15025 18.1556 10.0936C19.0984 11.037 19.697 12.2672 19.697 13.455C19.697 13.7352 19.924 13.9623 20.204 13.9623C20.484 13.9623 20.7109 13.7352 20.7109 13.455C20.7109 11.9373 19.9576 10.462 18.8725 9.37621C17.7874 8.29045 16.313 7.53668 14.7962 7.53668Z" fill="white"/>
<path d="M12.0549 8.64181C11.3289 7.91542 10.1519 7.91542 9.42599 8.64181L8.75003 9.31819C8.40141 9.66701 8.20557 10.1401 8.20557 10.6334V11.8603C8.20557 12.0788 8.24368 12.3089 8.34201 12.5305C8.62431 13.1665 9.51342 14.9287 11.4184 16.8349C13.3234 18.7411 15.0845 19.6307 15.7202 19.9132C15.9416 20.0116 16.1716 20.0497 16.39 20.0497H17.6161C18.1091 20.0497 18.5819 19.8537 18.9305 19.5049L19.6065 18.8285C20.3324 18.1021 20.3324 16.9244 19.6065 16.198L18.6423 15.2332C18.0157 14.6063 17.034 14.509 16.2967 15.0008L15.8438 15.303C15.5875 15.474 15.2787 15.4841 15.0432 15.3449C14.6125 15.0902 14.1125 14.759 13.8028 14.4491C13.493 14.1391 13.162 13.6388 12.9075 13.2079C12.7684 12.9723 12.7785 12.6633 12.9494 12.4068L13.2513 11.9536C13.7429 11.2159 13.6457 10.2336 13.0191 9.6066L12.0549 8.64181Z" fill="white"/>
<path d="M15.4722 10.2422C15.1922 10.2422 14.9652 10.4693 14.9652 10.7495C14.9652 11.0297 15.1922 11.2568 15.4722 11.2568C15.8143 11.2568 16.1988 11.433 16.5079 11.7423C16.817 12.0516 16.9931 12.4363 16.9931 12.7786C16.9931 13.0588 17.2201 13.2859 17.5001 13.2859C17.7801 13.2859 18.0071 13.0588 18.0071 12.7786C18.0071 12.1064 17.6762 11.4765 17.2249 11.0249C16.7735 10.5732 16.1441 10.2422 15.4722 10.2422Z" fill="white"/>
</svg>
