<svg width="28" height="28" viewBox="0 0 28 28" fill="none" xmlns="http://www.w3.org/2000/svg">
<rect x="0.983398" y="0.955688" width="26.9835" height="27" rx="13.4917" fill="#4D8BBE"/>
<path d="M18.6939 7.39919C16.1227 6.90787 13.4526 6.90787 10.8814 7.39919C9.74418 7.64485 8.31024 9.02056 8.06301 10.1015C7.61799 12.2142 7.61799 14.376 8.06301 16.4887C8.35969 17.5696 9.79362 18.9453 10.8814 19.1909C10.9309 19.1909 10.9803 19.2401 10.9803 19.2892V22.3845C10.9803 22.5319 11.1781 22.6302 11.277 22.4828L12.7604 20.9597C12.7604 20.9597 13.9471 19.7314 14.1449 19.5349C14.1449 19.5349 14.1943 19.4857 14.2438 19.4857C15.7272 19.5349 17.26 19.3875 18.7434 19.1418C19.8806 18.8961 21.3146 17.5204 21.5618 16.4395C22.0068 14.3268 22.0068 12.165 21.5618 10.0523C21.2651 9.02056 19.8312 7.64485 18.6939 7.39919ZM18.7434 16.6361C18.4961 17.1274 18.1995 17.5204 17.705 17.7661C17.5567 17.8152 17.4083 17.8644 17.26 17.9135C17.0622 17.8644 16.9139 17.8152 16.7655 17.7661C15.1833 17.1274 13.6999 16.243 12.5132 14.9656C11.8704 14.2286 11.3265 13.3933 10.8814 12.5089C10.6837 12.0668 10.4859 11.6737 10.3375 11.2315C10.1892 10.8384 10.4364 10.4454 10.6837 10.1506C10.9309 9.8558 11.2276 9.65928 11.5737 9.51188C11.8209 9.36448 12.0681 9.46275 12.2659 9.65928C12.6615 10.1506 13.0571 10.6419 13.3537 11.1824C13.5515 11.5263 13.5021 11.9194 13.156 12.165C13.0571 12.2142 13.0076 12.2633 12.9087 12.3615C12.8593 12.4107 12.7604 12.4598 12.7109 12.5581C12.6121 12.7055 12.6121 12.8529 12.6615 13.0003C13.0571 14.1303 13.7988 15.0147 14.936 15.506C15.1338 15.6043 15.2821 15.6534 15.5294 15.6534C15.8755 15.6043 16.0238 15.2112 16.2711 15.0147C16.5183 14.8182 16.815 14.8182 17.1117 14.9656C17.3589 15.113 17.6061 15.3095 17.9028 15.506C18.15 15.7025 18.3973 15.8499 18.6445 16.0465C18.7928 16.1447 18.8423 16.3904 18.7434 16.6361ZM16.6666 12.9511C16.5677 12.9511 16.6172 12.9511 16.6666 12.9511C16.4689 12.9511 16.4194 12.8529 16.37 12.7055C16.37 12.6072 16.37 12.4598 16.3205 12.3615C16.2711 12.165 16.1722 11.9685 15.9744 11.8211C15.8755 11.772 15.7766 11.7228 15.6777 11.6737C15.5294 11.6246 15.4305 11.6246 15.2821 11.6246C15.1338 11.5754 15.0844 11.4772 15.0844 11.3298C15.0844 11.2315 15.2327 11.1332 15.3316 11.1332C16.1227 11.1824 16.7161 11.6246 16.815 12.5581C16.815 12.6072 16.815 12.7055 16.815 12.7546C16.815 12.8529 16.7655 12.9511 16.6666 12.9511ZM16.1722 10.7893C15.9249 10.6911 15.6777 10.5928 15.381 10.5437C15.2821 10.5437 15.1338 10.4945 15.0349 10.4945C14.8866 10.4945 14.7877 10.3963 14.8371 10.2489C14.8371 10.1015 14.936 10.0032 15.0844 10.0523C15.5788 10.1015 16.0238 10.1997 16.4689 10.3963C17.3589 10.8384 17.8533 11.5754 18.0017 12.5581C18.0017 12.6072 18.0017 12.6563 18.0017 12.7055C18.0017 12.8037 18.0017 12.902 18.0017 13.0494C18.0017 13.0985 18.0017 13.1477 18.0017 13.1968C17.9522 13.3933 17.6061 13.4425 17.5567 13.1968C17.5567 13.1477 17.5072 13.0494 17.5072 13.0003C17.5072 12.5581 17.4083 12.1159 17.2105 11.7228C16.9139 11.2806 16.5677 10.9858 16.1722 10.7893ZM18.8423 13.7373C18.6939 13.7373 18.595 13.5899 18.595 13.4425C18.595 13.1477 18.5456 12.8529 18.4961 12.5581C18.2984 10.9858 17.0128 9.70841 15.4799 9.46275C15.2327 9.41361 14.9855 9.41361 14.7877 9.36448C14.6393 9.36448 14.4416 9.36448 14.3921 9.16795C14.3427 9.02056 14.491 8.87316 14.6393 8.87316C14.6888 8.87316 14.7382 8.87316 14.7382 8.87316C16.7655 8.92229 14.8371 8.87316 14.7382 8.87316C16.815 8.92229 18.5456 10.298 18.8917 12.3615C18.9412 12.7055 18.9906 13.0494 18.9906 13.4425C19.0895 13.5899 18.9906 13.7373 18.8423 13.7373Z" fill="white"/>
</svg>
